# xmcd CD database file
#
# Track frame offsets:
#	150
#	26942
#	61525
#	75130
#	87045
#	100960
#	138685
#	150682
#	163252
#	177215
#
# Disc length: 2594 seconds
#
# Revision: 2
# Processed by: cddbd v1.4b41PL1 Copyright (c) Steve Scherf et al.
# Submitted via: Feurio! 1.50.2ß - http://www.feurio.com
#
DISCID=730a200a
DTITLE=Various Artist - Die Schönsten Blues-Balladen
DYEAR=1900
DGENRE=
TTITLE0=Robert Cray - The Last Time
TTITLE1=Jeff Healey - Blue Jeans Blues
TTITLE2=B.B.King - Sweet Little Angel
TTITLE3=Buddy Guy - My Love Is Real
TTITLE4=Otis Rush - Groaning The Blues
TTITLE5=Stevie Ray Vaughan - Little Wing
TTITLE6=Albert King and Otis Rush - You Know My Love
TTITLE7=Elmore James - The Sky Is Crying
TTITLE8=B.B.King - You Know I Love You
TTITLE9=John Lee Hooker - Red House
EXTD=Eigentümer Daniel Perlick
EXTT0=
EXTT1=
EXTT2=
EXTT3=
EXTT4=
EXTT5=
EXTT6=
EXTT7=
EXTT8=
EXTT9=
PLAYORDER=
